<!-- Generator: Adobe Illustrator 24.2.1, SVG Export Plug-In  -->
<svg version="1.1" xmlns="http://www.w3.org/2000/svg" xmlns:xlink="http://www.w3.org/1999/xlink" x="0px" y="0px" width="544.2px"
     height="544.2px" viewBox="0 0 544.2 544.2" style="overflow:visible;enable-background:new 0 0 544.2 544.2;"
     xml:space="preserve">
<defs>
</defs>
<g>
    <g>
        <path style="fill:#1099FF;" d="M272.1,0C2.1,0,0,121.8,0,272.1s2.1,272.1,272.1,272.1s272.1-121.8,272.1-272.1S542.1,0,272.1,0z"/>
    </g>
    <g>
        <path style="fill:#FFFFFF;" d="M272.1,135.9c34.5,0,69,0,103.5,0c18.8,0,33.4,12.1,36.7,30.5c0.4,2.3,0.5,4.7,0.5,7
            c0,59.9,0,119.8,0,179.7c0,19.1-12.8,33.9-31.7,36.8c-1.9,0.3-3.8,0.3-5.7,0.3c-15.4,0-30.8,0.1-46.2,0c-4.2,0-7.4,1.4-10.1,4.8
            c-13,16.4-26.1,32.7-39.2,49c-4.7,5.9-10.9,5.9-15.7-0.1c-13.1-16.3-26.2-32.6-39.2-49c-2.6-3.3-5.7-4.7-9.9-4.7
            c-15.6,0.1-31.2,0.1-46.8,0c-18.7-0.1-33.2-12.2-36.4-30.5c-0.4-2.1-0.5-4.2-0.5-6.4c0-60,0-120.1,0-180.1
            c0-17.1,10.3-31.2,26.2-35.7c3.6-1,7.4-1.5,11.1-1.5C203.2,135.8,237.7,135.9,272.1,135.9z M181.2,263c-0.2,50,40.5,90.8,90.7,91
            c50.2,0.2,91-40.5,91.1-90.8c0.1-50.1-40.5-90.8-90.7-91C222.2,171.9,181.4,212.6,181.2,263z"/>
        <path style="fill:#FFFFFF;" d="M272.3,227.1c4.5-4.4,9.7-7.4,15.8-8.7c21.4-4.7,40.8,13.2,38.3,34.9c-1.6,14.2-8.3,25.8-17.6,36.1
            c-10.1,11.2-22.1,20-35.2,27.2c-0.7,0.4-2,0.5-2.7,0.1c-16.4-9.1-31.2-20.2-42.2-35.7c-6.9-9.6-11.4-20.2-11-32.2
            c0.4-13.2,6.8-23.1,18.9-28.4c12.1-5.3,23.4-3.2,33.6,5.2c0.5,0.4,1.1,0.9,1.6,1.4C271.9,227,272,227,272.3,227.1z"/>
    </g>
</g>
</svg>
